<svg width="22" height="22" viewBox="0 0 22 22" fill="none" xmlns="http://www.w3.org/2000/svg">
<path fill-rule="evenodd" clip-rule="evenodd" d="M6.05 11.0001C6.05 11.9114 5.31127 12.6501 4.4 12.6501C3.48873 12.6501 2.75 11.9114 2.75 11.0001C2.75 10.0888 3.48873 9.3501 4.4 9.3501C5.31127 9.3501 6.05 10.0888 6.05 11.0001ZM12.65 11.0001C12.65 11.9114 11.9113 12.6501 11 12.6501C10.0887 12.6501 9.35 11.9114 9.35 11.0001C9.35 10.0888 10.0887 9.3501 11 9.3501C11.9113 9.3501 12.65 10.0888 12.65 11.0001ZM17.6 12.6501C18.5113 12.6501 19.25 11.9114 19.25 11.0001C19.25 10.0888 18.5113 9.3501 17.6 9.3501C16.6887 9.3501 15.95 10.0888 15.95 11.0001C15.95 11.9114 16.6887 12.6501 17.6 12.6501Z" fill="#818386"/>
</svg>
