<svg width="55" height="55" viewBox="0 0 55 55" fill="none" xmlns="http://www.w3.org/2000/svg">
<path d="M0 23.8C0 14.6344 0 10.0516 2.06304 6.68502C3.21742 4.80124 4.80124 3.21742 6.68502 2.06304C10.0516 0 14.6344 0 23.8 0H28.2003C37.3659 0 41.9487 0 45.3153 2.06304C47.1991 3.21742 48.7829 4.80124 49.9373 6.68502C52.0003 10.0516 52.0003 14.6344 52.0003 23.8V28.2003C52.0003 37.3659 52.0003 41.9487 49.9373 45.3153C48.7829 47.1991 47.1991 48.7829 45.3153 49.9373C41.9487 52.0003 37.3659 52.0003 28.2003 52.0003H23.8C14.6344 52.0003 10.0516 52.0003 6.68502 49.9373C4.80124 48.7829 3.21742 47.1991 2.06304 45.3153C0 41.9487 0 37.3659 0 28.2003V23.8Z" fill="white"/>
<path opacity="0.2" d="M0 23.8C0 14.6344 0 10.0516 2.06304 6.68502C3.21742 4.80124 4.80124 3.21742 6.68502 2.06304C10.0516 0 14.6344 0 23.8 0H28.2003C37.3659 0 41.9487 0 45.3153 2.06304C47.1991 3.21742 48.7829 4.80124 49.9373 6.68502C52.0003 10.0516 52.0003 14.6344 52.0003 23.8V28.2003C52.0003 37.3659 52.0003 41.9487 49.9373 45.3153C48.7829 47.1991 47.1991 48.7829 45.3153 49.9373C41.9487 52.0003 37.3659 52.0003 28.2003 52.0003H23.8C14.6344 52.0003 10.0516 52.0003 6.68502 49.9373C4.80124 48.7829 3.21742 47.1991 2.06304 45.3153C0 41.9487 0 37.3659 0 28.2003V23.8Z" fill="#FF9054"/>
<path d="M25.5551 19.49H21.4691V32H25.5551C29.5691 32 32.1971 29.642 32.1971 25.79C32.1971 21.92 29.5691 19.49 25.5551 19.49ZM23.5211 30.326V21.164H25.5551C28.5071 21.164 30.0911 22.928 30.0911 25.79C30.0911 28.634 28.5071 30.326 25.5551 30.326H23.5211Z" fill="#FF9054"/>
<path d="M48 53.5C51.0376 53.5 53.5 51.0376 53.5 48C53.5 44.9624 51.0376 42.5 48 42.5C44.9624 42.5 42.5 44.9624 42.5 48C42.5 51.0376 44.9624 53.5 48 53.5Z" fill="#44CB7F" stroke="white" stroke-width="3"/>
</svg>
